<svg xmlns="http://www.w3.org/2000/svg" viewBox="0 0 32 32" fill="none">
  <rect width="32" height="32" rx="8" fill="#6366f1"/>
  <path d="M16 6C10.48 6 6 10.48 6 16C6 20.42 8.87 24.17 12.84 25.49C13.34 25.58 13.52 25.27 13.52 25.01C13.52 24.78 13.51 24.02 13.51 23.21C11 23.68 10.36 22.46 10.16 21.9C10.05 21.62 9.56 20.73 9.13 20.49C8.78 20.3 8.28 19.84 9.12 19.83C9.91 19.82 10.47 20.56 10.66 20.86C11.56 22.38 13.01 21.95 13.58 21.69C13.67 21.04 13.93 20.6 14.22 20.35C11.98 20.1 9.64 19.23 9.64 15.39C9.64 14.3 10.03 13.4 10.67 12.69C10.57 12.44 10.22 11.41 10.77 10.04C10.77 10.04 11.61 9.77 13.52 11.06C14.32 10.84 15.17 10.73 16.02 10.73C16.87 10.73 17.72 10.84 18.52 11.06C20.43 9.76 21.27 10.04 21.27 10.04C21.82 11.41 21.47 12.44 21.37 12.69C22.01 13.4 22.4 14.29 22.4 15.39C22.4 19.24 20.05 20.1 17.81 20.35C18.17 20.66 18.49 21.26 18.49 22.2C18.49 23.55 18.48 24.64 18.48 25.01C18.48 25.27 18.66 25.59 19.16 25.49C23.13 24.16 26 20.41 26 16C26 10.48 21.52 6 16 6Z" fill="white"/>
</svg>